# xmcd
#
# Track frame offsets:
#	150
#	14295
#	29457
#	43062
#	58550
#	71687
#	88182
#	105125
#	123152
#	140852
#
# Disc length: 2190 seconds
#
# Revision: 1
# Processed by: cddbd v1.5.2PL0 Copyright (c) Steve Scherf et al.
# Submitted via: audiograbber 1.83.01
#
DISCID=85088c0a
DTITLE=Danny Griego - At The Crossroad
DYEAR=1999
DGENRE=Country
TTITLE0=Chasin My Tail
TTITLE1=Rusty Old Ford
TTITLE2=Guilt Trip
TTITLE3=Bellow The Border
TTITLE4=Leesa, Leesa
TTITLE5=Levin Down Gold
TTITLE6=Cantina Joe
TTITLE7=It´s You
TTITLE8=Who I Am
TTITLE9=At The Crossroad
EXTD=
EXTT0=
EXTT1=
EXTT2=
EXTT3=
EXTT4=
EXTT5=
EXTT6=
EXTT7=
EXTT8=
EXTT9=
PLAYORDER=
